<svg xmlns="http://www.w3.org/2000/svg" width="812" height="271.63" viewBox="0 0 812 271.63"><g transform="translate(3970.66 -4695.628)"><g transform="translate(-3700.557 4876.586)"><g transform="translate(0 0)"><rect width="90.876" height="89.614" transform="translate(0)"/><g transform="translate(11.4 9.296)"><path d="M417.408,159.6l-33.9-35.385,33.9-35.386,33.9,35.386Zm-32.426-35.385,32.426,33.843,32.426-33.843L417.408,90.371Z" transform="translate(-383.505 -88.828)" fill="#fff"/><g transform="translate(12.176 12.57)"><path d="M424.1,154.27l-21.727-22.816L424.1,108.638l21.728,22.816Zm-20.239-22.816L424.1,152.707l20.24-21.254L424.1,110.2Z" transform="translate(-402.369 -108.638)" fill="#fff"/></g><g transform="translate(31.032 32.371)"><ellipse cx="2.871" cy="3.015" rx="2.871" ry="3.015" fill="#fff"/></g></g></g></g><g transform="translate(-3339.578 4786.973)"><g transform="translate(0 0)"><rect width="90.876" height="89.614"/><g transform="translate(11.31 9.143)"><path d="M417.408,159.6l-33.9-35.385,33.9-35.386,33.9,35.386Zm-32.426-35.385,32.426,33.843,32.426-33.843L417.408,90.371Z" transform="translate(-383.505 -88.828)" fill="#fff"/><g transform="translate(12.176 12.57)"><path d="M424.1,154.27l-21.727-22.816L424.1,108.638l21.728,22.816Zm-20.239-22.816L424.1,152.707l20.24-21.254L424.1,110.2Z" transform="translate(-402.369 -108.638)" fill="#fff"/></g><g transform="translate(31.032 32.371)"><ellipse cx="2.871" cy="3.015" rx="2.871" ry="3.015" fill="#fff"/></g></g></g></g><g transform="translate(-3790.455 4785.798)"><path d="M0,0H90.222V90.222H0Z" transform="translate(0)"/><g transform="translate(14.102 12.966)"><path d="M143.095,296.661c-16.926,0-30.7-14.4-30.7-32.091s13.77-32.09,30.7-32.09,30.7,14.4,30.7,32.09S160.021,296.661,143.095,296.661Zm0-63.274c-16.446,0-29.827,13.988-29.827,31.182s13.381,31.183,29.827,31.183,29.828-13.988,29.828-31.183S159.542,233.387,143.095,233.387Z" transform="translate(-112.399 -232.479)" fill="#fff"/><g transform="translate(8.022 0.273)"><path d="M125.395,286.547l-.8-.367,22.276-53.287.8.367Z" transform="translate(-124.599 -232.894)" fill="#fff"/><g transform="translate(22.276 0)"><path d="M180.675,286.546l-22.2-53.286.8-.366,22.2,53.287Z" transform="translate(-158.477 -232.894)" fill="#fff"/></g></g><g transform="translate(8.646 9.567)"><g transform="translate(21.869 0.003)"><path d="M159.609,301.8l-.8-.351,21.431-53.979.8.351Z" transform="translate(-158.807 -247.471)" fill="#fff"/></g><path d="M147.419,301.8l-21.87-53.979.8-.357,21.87,53.979Z" transform="translate(-125.549 -247.466)" fill="#fff"/></g><g transform="translate(8.261 9.61)"><g transform="translate(0.623)"><path d="M177.821,269.911l-51.912-21.97.325-.846,51.912,21.97Z" transform="translate(-125.909 -247.094)" fill="#fff"/></g><g transform="translate(0 21.969)"><path d="M125.28,303.093l-.318-.849L177.5,280.505l.318.849Z" transform="translate(-124.962 -280.505)" fill="#fff"/></g></g><g transform="translate(0.271 9.611)"><g transform="translate(0.006 22.198)"><path d="M165.279,303.213l-52.459-21.508.316-.85,52.459,21.508Z" transform="translate(-112.819 -280.855)" fill="#fff"/></g><path d="M113.138,270.141l-.327-.845,51.913-22.2.327.845Z" transform="translate(-112.81 -247.095)" fill="#fff"/></g></g></g><g transform="translate(-3519.788 4876.02)"><path d="M0,0H90.222V90.222H0Z" transform="translate(0)"/><g transform="translate(14.102 12.966)"><path d="M143.095,296.661c-16.926,0-30.7-14.4-30.7-32.091s13.77-32.09,30.7-32.09,30.7,14.4,30.7,32.09S160.021,296.661,143.095,296.661Zm0-63.274c-16.446,0-29.827,13.988-29.827,31.182s13.381,31.183,29.827,31.183,29.828-13.988,29.828-31.183S159.542,233.387,143.095,233.387Z" transform="translate(-112.399 -232.479)" fill="#fff"/><g transform="translate(8.022 0.273)"><path d="M125.395,286.547l-.8-.367,22.276-53.287.8.367Z" transform="translate(-124.599 -232.894)" fill="#fff"/><g transform="translate(22.276 0)"><path d="M180.675,286.546l-22.2-53.286.8-.366,22.2,53.287Z" transform="translate(-158.477 -232.894)" fill="#fff"/></g></g><g transform="translate(8.646 9.567)"><g transform="translate(21.869 0.003)"><path d="M159.609,301.8l-.8-.351,21.431-53.979.8.351Z" transform="translate(-158.807 -247.471)" fill="#fff"/></g><path d="M147.419,301.8l-21.87-53.979.8-.357,21.87,53.979Z" transform="translate(-125.549 -247.466)" fill="#fff"/></g><g transform="translate(8.261 9.61)"><g transform="translate(0.623)"><path d="M177.821,269.911l-51.912-21.97.325-.846,51.912,21.97Z" transform="translate(-125.909 -247.094)" fill="#fff"/></g><g transform="translate(0 21.969)"><path d="M125.28,303.093l-.318-.849L177.5,280.505l.318.849Z" transform="translate(-124.962 -280.505)" fill="#fff"/></g></g><g transform="translate(0.271 9.611)"><g transform="translate(0.006 22.198)"><path d="M165.279,303.213l-52.459-21.508.316-.85,52.459,21.508Z" transform="translate(-112.819 -280.855)" fill="#fff"/></g><path d="M113.138,270.141l-.327-.845,51.913-22.2.327.845Z" transform="translate(-112.81 -247.095)" fill="#fff"/></g></g></g><g transform="translate(-3790.171 4696.098)"><g transform="translate(0 0)"><rect width="89.614" height="89.614"/></g><g transform="translate(21.523 6.851)"><path d="M423.564,361.052c-12.8,0-23.223,10.747-23.223,23.955a24.264,24.264,0,0,0,6.826,16.946V422.6l-2.584,3.384,2.974,3.895,2.974-3.895-2.584-3.384V402.719a22.764,22.764,0,0,0,15.229,6.235v20.7l-2.584,3.385,2.974,3.894,2.97-3.894-2.58-3.385v-20.7a22.773,22.773,0,0,0,15.225-6.23c.265-.249.525-.506.778-.767a24.263,24.263,0,0,0,6.826-16.95C446.783,371.8,436.368,361.052,423.564,361.052Zm.389.807a22.029,22.029,0,0,1,15.194,6.5L427.37,380.511a5.669,5.669,0,0,0-3.417-1.462Zm-.779,0v17.19a5.648,5.648,0,0,0-3.417,1.462l-11.776-12.148A22.012,22.012,0,0,1,423.175,361.859Zm-13.637,64.12-1.981,2.6-1.981-2.6,1.981-2.6Zm-2.109-24.9a23.633,23.633,0,0,1,0-32.149l11.777,12.148a6.1,6.1,0,0,0,0,7.852Zm.553.566L419.758,389.5a5.643,5.643,0,0,0,3.417,1.461v17.191A22.013,22.013,0,0,1,407.981,401.647Zm17.564,31.39-1.981,2.6-1.981-2.6,1.981-2.6Zm-1.981-42.864a3.1,3.1,0,0,1-.389-.02,4.871,4.871,0,0,1-2.864-1.225,4.959,4.959,0,0,1-.553-.566,5.272,5.272,0,0,1,0-6.712,4.732,4.732,0,0,1,.553-.57,4.842,4.842,0,0,1,2.864-1.224,3.767,3.767,0,0,1,.779,0,4.846,4.846,0,0,1,2.864,1.224,5.057,5.057,0,0,1,.552.566,5.282,5.282,0,0,1,0,6.717,4.928,4.928,0,0,1-3.413,1.791A3.093,3.093,0,0,1,423.564,390.174Zm.389,17.977V390.96a5.629,5.629,0,0,0,3.413-1.461l11.777,12.148A22.011,22.011,0,0,1,423.954,408.151Zm15.743-7.07-11.777-12.152a6.092,6.092,0,0,0,0-7.848L439.7,368.932a23.633,23.633,0,0,1,0,32.149Z" transform="translate(-400.341 -361.052)" fill="#fff"/><g transform="translate(36.257 40.274)"><path d="M458.458,444.953v-21.01c-.253.266-.513.527-.778.781v20.23L455.1,448.4l2.97,3.965,2.973-3.965Zm-2.37,3.445,1.981-2.644,1.98,2.644-1.98,2.645Z" transform="translate(-455.1 -423.943)" fill="#fff"/></g></g></g><g transform="translate(-3429.192 4786.973)"><g transform="translate(0 0)"><rect width="89.614" height="89.614"/></g><g transform="translate(21.433 6.653)"><path d="M423.564,361.052c-12.8,0-23.223,10.747-23.223,23.955a24.264,24.264,0,0,0,6.826,16.946V422.6l-2.584,3.384,2.974,3.895,2.974-3.895-2.584-3.384V402.719a22.764,22.764,0,0,0,15.229,6.235v20.7l-2.584,3.385,2.974,3.894,2.97-3.894-2.58-3.385v-20.7a22.773,22.773,0,0,0,15.225-6.23c.265-.249.525-.506.778-.767a24.263,24.263,0,0,0,6.826-16.95C446.783,371.8,436.368,361.052,423.564,361.052Zm.389.807a22.029,22.029,0,0,1,15.194,6.5L427.37,380.511a5.669,5.669,0,0,0-3.417-1.462Zm-.779,0v17.19a5.648,5.648,0,0,0-3.417,1.462l-11.776-12.148A22.012,22.012,0,0,1,423.175,361.859Zm-13.637,64.12-1.981,2.6-1.981-2.6,1.981-2.6Zm-2.109-24.9a23.633,23.633,0,0,1,0-32.149l11.777,12.148a6.1,6.1,0,0,0,0,7.852Zm.553.566L419.758,389.5a5.643,5.643,0,0,0,3.417,1.461v17.191A22.013,22.013,0,0,1,407.981,401.647Zm17.564,31.39-1.981,2.6-1.981-2.6,1.981-2.6Zm-1.981-42.864a3.1,3.1,0,0,1-.389-.02,4.871,4.871,0,0,1-2.864-1.225,4.959,4.959,0,0,1-.553-.566,5.272,5.272,0,0,1,0-6.712,4.732,4.732,0,0,1,.553-.57,4.842,4.842,0,0,1,2.864-1.224,3.767,3.767,0,0,1,.779,0,4.846,4.846,0,0,1,2.864,1.224,5.057,5.057,0,0,1,.552.566,5.282,5.282,0,0,1,0,6.717,4.928,4.928,0,0,1-3.413,1.791A3.093,3.093,0,0,1,423.564,390.174Zm.389,17.977V390.96a5.629,5.629,0,0,0,3.413-1.461l11.777,12.148A22.011,22.011,0,0,1,423.954,408.151Zm15.743-7.07-11.777-12.152a6.092,6.092,0,0,0,0-7.848L439.7,368.932a23.633,23.633,0,0,1,0,32.149Z" transform="translate(-400.341 -361.052)" fill="#fff"/><g transform="translate(36.257 40.274)"><path d="M458.458,444.953v-21.01c-.253.266-.513.527-.778.781v20.23L455.1,448.4l2.97,3.965,2.973-3.965Zm-2.37,3.445,1.981-2.644,1.98,2.644-1.98,2.645Z" transform="translate(-455.1 -423.943)" fill="#fff"/></g></g></g><g transform="translate(-3880.401 4786.306)"><g transform="translate(0)"><path d="M0,0H90.222V90.222H0Z"/><g transform="translate(17.392 16.862)"><g transform="translate(48.393 50.828)"><path d="M698.442,1163.606h-3.791l1.922,2.03-.81.85-1.933-2.03v3.992h-1.145V1162.4h5.756Z" transform="translate(-692.686 -1162.404)" fill="#fff"/></g><path d="M557.073,969.985l3.164,3.323-23.392,24.563-23.381-24.552,3.164-3.334H509.49v7.507l3.164-3.322,23.381,24.552-17.679,18.564h-4.935v1.2h4.6v4.842h1.155v-5.205l17.679-18.553,17.668,18.553v5.205h1.145v-4.842h4.611v-1.2h-4.935l-17.679-18.564,23.381-24.552,3.164,3.322v-7.507Zm-46.438,4.593V971.2h3.218Zm52.432,0-3.229-3.379h3.229Z" transform="translate(-509.49 -969.985)" fill="#fff"/><g transform="translate(0.572 50.828)"><path d="M517.413,1162.4v6.044h-1.156v-3.992l-1.922,2.03-.821-.85,1.933-2.03h-3.79v-1.2Z" transform="translate(-511.657 -1162.404)" fill="#fff"/></g></g></g></g><g transform="translate(-3339.068 4696.084)"><g transform="translate(0)"><path d="M0,0H90.222V90.222H0Z"/><g transform="translate(17.392 16.862)"><g transform="translate(48.393 50.828)"><path d="M698.442,1163.606h-3.791l1.922,2.03-.81.85-1.933-2.03v3.992h-1.145V1162.4h5.756Z" transform="translate(-692.686 -1162.404)" fill="#fff"/></g><path d="M557.073,969.985l3.164,3.323-23.392,24.563-23.381-24.552,3.164-3.334H509.49v7.507l3.164-3.322,23.381,24.552-17.679,18.564h-4.935v1.2h4.6v4.842h1.155v-5.205l17.679-18.553,17.668,18.553v5.205h1.145v-4.842h4.611v-1.2h-4.935l-17.679-18.564,23.381-24.552,3.164,3.322v-7.507Zm-46.438,4.593V971.2h3.218Zm52.432,0-3.229-3.379h3.229Z" transform="translate(-509.49 -969.985)" fill="#fff"/><g transform="translate(0.572 50.828)"><path d="M517.413,1162.4v6.044h-1.156v-3.992l-1.922,2.03-.821-.85,1.933-2.03h-3.79v-1.2Z" transform="translate(-511.657 -1162.404)" fill="#fff"/></g></g></g></g><g transform="translate(-3519.968 4695.628)"><g transform="translate(0)"><path d="M0,0H90.222V90.222H0Z"/><g transform="translate(17.392 16.862)"><g transform="translate(48.393 50.828)"><path d="M698.442,1163.606h-3.791l1.922,2.03-.81.85-1.933-2.03v3.992h-1.145V1162.4h5.756Z" transform="translate(-692.686 -1162.404)" fill="#fff"/></g><path d="M557.073,969.985l3.164,3.323-23.392,24.563-23.381-24.552,3.164-3.334H509.49v7.507l3.164-3.322,23.381,24.552-17.679,18.564h-4.935v1.2h4.6v4.842h1.155v-5.205l17.679-18.553,17.668,18.553v5.205h1.145v-4.842h4.611v-1.2h-4.935l-17.679-18.564,23.381-24.552,3.164,3.322v-7.507Zm-46.438,4.593V971.2h3.218Zm52.432,0-3.229-3.379h3.229Z" transform="translate(-509.49 -969.985)" fill="#fff"/><g transform="translate(0.572 50.828)"><path d="M517.413,1162.4v6.044h-1.156v-3.992l-1.922,2.03-.821-.85,1.933-2.03h-3.79v-1.2Z" transform="translate(-511.657 -1162.404)" fill="#fff"/></g></g></g></g><g transform="translate(-3970.66 4695.682)"><path d="M0,0H90.222V90.222H0Z" transform="translate(0)"/><g transform="translate(4.831 24.153)"><g transform="translate(33.032)"><path d="M1315.419,346.29l-39.2-41.163.524-.55,39.2,41.163Z" transform="translate(-1276.221 -304.576)" fill="#fff"/></g><g transform="translate(7.294)"><path d="M1178.582,346.29l-.524-.55,39.2-41.163.524.55Z" transform="translate(-1178.057 -304.576)" fill="#fff"/></g><g transform="translate(0 41.049)"><rect width="82.021" height="0.778" fill="#fff"/></g><g transform="translate(25.676 26.278)"><path d="M1248.688,420.141l-.524-.55L1262.25,404.8l.524.55Z" transform="translate(-1248.164 -404.798)" fill="#fff"/></g><g transform="translate(39.763 26.278)"><path d="M1315.976,420.141l-14.087-14.793.524-.55,14.087,14.793Z" transform="translate(-1301.889 -404.798)" fill="#fff"/></g></g></g><g transform="translate(-3248.882 4877.037)"><path d="M0,0H90.222V90.222H0Z" transform="translate(0)"/><g transform="translate(4.831 24.153)"><g transform="translate(33.032)"><path d="M1315.419,346.29l-39.2-41.163.524-.55,39.2,41.163Z" transform="translate(-1276.221 -304.576)" fill="#fff"/></g><g transform="translate(7.294)"><path d="M1178.582,346.29l-.524-.55,39.2-41.163.524.55Z" transform="translate(-1178.057 -304.576)" fill="#fff"/></g><g transform="translate(0 41.049)"><rect width="82.021" height="0.778" fill="#fff"/></g><g transform="translate(25.676 26.278)"><path d="M1248.688,420.141l-.524-.55L1262.25,404.8l.524.55Z" transform="translate(-1248.164 -404.798)" fill="#fff"/></g><g transform="translate(39.763 26.278)"><path d="M1315.976,420.141l-14.087-14.793.524-.55,14.087,14.793Z" transform="translate(-1301.889 -404.798)" fill="#fff"/></g></g></g><g transform="translate(-3609.681 4696.098)"><rect width="89.614" height="89.614" transform="translate(0 0)"/><g transform="translate(6.501 29.727)"><g transform="translate(0 22.727)"><path d="M251.059,431.97l-6.184,6.494-.651-.678.009-.01-5.552-5.83.637-.669,5.552,5.83,5.538-5.816Z" transform="translate(-238.682 -431.277)" fill="#fff"/><g transform="translate(11.101)"><path d="M267.943,431.97l-6.184,6.494-.65-.678.009-.01-5.552-5.83.637-.669,5.552,5.83,5.538-5.816Z" transform="translate(-255.565 -431.277)" fill="#fff"/></g><g transform="translate(22.044)"><path d="M284.815,431.97l-6.184,6.494-.65-.678.009-.01-5.552-5.83.637-.669,5.552,5.83,5.538-5.816Z" transform="translate(-272.438 -431.277)" fill="#fff"/></g><g transform="translate(33.062)"><path d="M301.687,431.97l-6.184,6.494-.65-.678.009-.01-5.552-5.83.637-.669,5.552,5.83,5.538-5.816Z" transform="translate(-289.31 -431.277)" fill="#fff"/></g><g transform="translate(44.08)"><path d="M318.56,431.97l-6.184,6.494-.651-.678.009-.01-5.552-5.83.637-.669,5.552,5.83,5.538-5.816Z" transform="translate(-306.182 -431.277)" fill="#fff"/></g><g transform="translate(55.023)"><path d="M335.432,431.97l-6.184,6.494-.65-.678.009-.01-5.552-5.83.637-.669,5.552,5.83,5.538-5.816Z" transform="translate(-323.055 -431.277)" fill="#fff"/></g><g transform="translate(66.117)"><path d="M352.3,431.97l-6.184,6.494-.651-.678.009-.01-5.552-5.83.637-.669,5.552,5.83,5.538-5.816Z" transform="translate(-339.927 -431.277)" fill="#fff"/></g></g><g transform="translate(0.526 12.073)"><path d="M251.859,415.767l-6.184,6.494-.651-.678.009-.01-5.552-5.83.637-.669,5.552,5.83,5.538-5.816Z" transform="translate(-239.482 -415.074)" fill="#fff"/><g transform="translate(11.101)"><path d="M268.743,415.767l-6.184,6.494-.65-.678.009-.01-5.552-5.83.637-.669,5.552,5.83,5.538-5.816Z" transform="translate(-256.365 -415.074)" fill="#fff"/></g><g transform="translate(22.044)"><path d="M285.615,415.767l-6.184,6.494-.651-.678.009-.01-5.552-5.83.637-.669,5.552,5.83,5.538-5.816Z" transform="translate(-273.238 -415.074)" fill="#fff"/></g><g transform="translate(33.062)"><path d="M302.487,415.767l-6.184,6.494-.65-.678.009-.01-5.552-5.83.637-.669,5.552,5.83,5.538-5.816Z" transform="translate(-290.11 -415.074)" fill="#fff"/></g><g transform="translate(44.08)"><path d="M319.36,415.767l-6.184,6.494-.651-.678.009-.01-5.552-5.83.637-.669,5.552,5.83,5.538-5.816Z" transform="translate(-306.982 -415.074)" fill="#fff"/></g><g transform="translate(55.023)"><path d="M336.232,415.767l-6.184,6.494-.65-.678.009-.01-5.552-5.83.637-.669,5.552,5.83,5.538-5.816Z" transform="translate(-323.855 -415.074)" fill="#fff"/></g><g transform="translate(66.117)"><path d="M353.1,415.767l-6.184,6.494-.65-.678.009-.01-5.552-5.83.637-.669,5.552,5.83,5.538-5.816Z" transform="translate(-340.727 -415.074)" fill="#fff"/></g></g><g transform="translate(6.391)"><path d="M249.049,403.3l-.648-.68,5.625-5.907.648.68Z" transform="translate(-248.401 -396.713)" fill="#fff"/></g><g transform="translate(17.383)"><path d="M265.932,403.3l-.648-.68,5.625-5.907.648.68Z" transform="translate(-265.284 -396.713)" fill="#fff"/></g><g transform="translate(28.416)"><path d="M282.816,403.3l-.648-.68,5.625-5.907.648.68Z" transform="translate(-282.168 -396.713)" fill="#fff"/></g><g transform="translate(39.448)"><path d="M299.7,403.3l-.648-.68,5.625-5.907.648.68Z" transform="translate(-299.051 -396.713)" fill="#fff"/></g><g transform="translate(50.481)"><path d="M316.583,403.3l-.648-.68,5.625-5.907.648.68Z" transform="translate(-315.935 -396.713)" fill="#fff"/></g><g transform="translate(61.443)"><path d="M333.466,403.3l-.648-.68,5.625-5.907.648.68Z" transform="translate(-332.818 -396.713)" fill="#fff"/></g><g transform="translate(72.544)"><path d="M350.349,403.3l-.648-.68,5.625-5.907.648.68Z" transform="translate(-349.702 -396.713)" fill="#fff"/></g></g></g></g></svg>