<svg xmlns="http://www.w3.org/2000/svg" width="644.306" height="564.178" viewBox="0 0 644.306 564.178">
  <g id="Group_2451" data-name="Group 2451" transform="translate(-638 -258)">
    <g id="Group_2440" data-name="Group 2440" transform="translate(737.5 426.568)">
      <g id="Group_2272" data-name="Group 2272" transform="translate(120.5 88.7)">
        <g id="Group_2271" data-name="Group 2271">
          <path id="Path_534" data-name="Path 534" d="M191.391,91.7V85.5H165.583a26.576,26.576,0,0,0-5.53.574h0a18.517,18.517,0,0,0-4.054,1.964,18.1,18.1,0,0,0-3.845-1.887A26.463,26.463,0,0,0,146.3,85.5H120.5v6.2h25.8a19.812,19.812,0,0,1,2.122.109A26.6,26.6,0,0,0,139,112.083a26.279,26.279,0,0,0,1.755,9.444,26.61,26.61,0,0,0,7.671,10.811q-1.045.1-2.122.1H120.5v6.212h25.8a26.347,26.347,0,0,0,5.687-.617,18.563,18.563,0,0,0,4-1.948,18.149,18.149,0,0,0,4.23,2.018,26.073,26.073,0,0,0,5.359.546h25.808v-6.212H165.583c-.708,0-1.414-.033-2.1-.1a26.545,26.545,0,0,0,0-40.53,20.346,20.346,0,0,1,2.1-.106ZM164.01,101.982c.171.3.334.6.491.91a20.438,20.438,0,0,1,0,18.361c-.147.3-.307.6-.475.891a20.242,20.242,0,0,1-8.075,7.865,20.319,20.319,0,0,1-8.083-7.853c-.131-.227-.251-.452-.369-.684a20.439,20.439,0,0,1,0-18.78c.126-.245.256-.483.395-.718a20.393,20.393,0,0,1,8.062-7.84A20.383,20.383,0,0,1,164.01,101.982Z" transform="translate(-120.5 -85.5)" fill="#1a1818"/>
        </g>
      </g>
      <text id="Inguz_Studios" data-name="Inguz
Studios" transform="translate(203.925 111.432)" fill="#1a1818" font-size="32" font-family="SegoeUI, Segoe UI" letter-spacing="0.191em"><tspan x="0" y="0">Inguz</tspan><tspan font-size="25" letter-spacing="0.158em"><tspan x="0" y="30">Studios</tspan></tspan></text>
    </g>
    <g id="Group_2441" data-name="Group 2441" transform="translate(9 -31)">
      <g id="Group_863" data-name="Group 863" transform="translate(-1244.368 -834.775)">
        <g id="Group_858" data-name="Group 858">
          <rect id="Rectangle_1250" data-name="Rectangle 1250" width="1.6" height="119.623" transform="translate(2187.647 1124.906) rotate(-45)" fill="#1a1818"/>
        </g>
        <g id="Group_859" data-name="Group 859">
          <rect id="Rectangle_1251" data-name="Rectangle 1251" width="119.623" height="1.6" transform="translate(2132.107 1208.362) rotate(-45)" fill="#1a1818"/>
        </g>
        <g id="Group_860" data-name="Group 860">
          <rect id="Rectangle_1252" data-name="Rectangle 1252" width="176.992" height="1.6" transform="translate(2116.367 1208.127)" fill="#1a1818"/>
        </g>
        <g id="Group_861" data-name="Group 861">
          <rect id="Rectangle_1253" data-name="Rectangle 1253" width="42.989" height="1.6" transform="translate(2171.773 1208.172) rotate(-45)" fill="#1a1818"/>
        </g>
        <g id="Group_862" data-name="Group 862">
          <rect id="Rectangle_1254" data-name="Rectangle 1254" width="1.6" height="42.989" transform="matrix(0.707, -0.707, 0.707, 0.707, 2202.171, 1178.906)" fill="#1a1818"/>
        </g>
      </g>
      <g id="Group_877" data-name="Group 877" transform="translate(-1244.785 -582.775)">
        <g id="Group_864" data-name="Group 864">
          <path id="Path_195" data-name="Path 195" d="M2204.863,1435.953a56.524,56.524,0,1,1,56.525-56.525A56.588,56.588,0,0,1,2204.863,1435.953Zm0-111.449a54.924,54.924,0,1,0,54.925,54.924A54.986,54.986,0,0,0,2204.863,1324.5Z" fill="#1a1818"/>
        </g>
        <g id="Group_867" data-name="Group 867">
          <g id="Group_865" data-name="Group 865">
            <rect id="Rectangle_1255" data-name="Rectangle 1255" width="102.047" height="1.6" transform="matrix(0.402, -0.916, 0.916, 0.402, 2163.123, 1416.828)" fill="#1a1818"/>
          </g>
          <g id="Group_866" data-name="Group 866">
            <rect id="Rectangle_1256" data-name="Rectangle 1256" width="1.6" height="101.99" transform="matrix(0.916, -0.401, 0.401, 0.916, 2204.13, 1324.025)" fill="#1a1818"/>
          </g>
        </g>
        <g id="Group_870" data-name="Group 870">
          <g id="Group_868" data-name="Group 868">
            <rect id="Rectangle_1257" data-name="Rectangle 1257" width="102.552" height="1.6" transform="translate(2204.53 1434.845) rotate(-67.367)" fill="#1a1818"/>
          </g>
          <g id="Group_869" data-name="Group 869">
            <rect id="Rectangle_1258" data-name="Rectangle 1258" width="1.599" height="102.866" transform="translate(2164.261 1340.811) rotate(-23.048)" fill="#1a1818"/>
          </g>
        </g>
        <g id="Group_873" data-name="Group 873">
          <g id="Group_871" data-name="Group 871">
            <rect id="Rectangle_1259" data-name="Rectangle 1259" width="1.6" height="103.062" transform="translate(2164.698 1341.24) rotate(-68.049)" fill="#1a1818"/>
          </g>
          <g id="Group_872" data-name="Group 872">
            <rect id="Rectangle_1260" data-name="Rectangle 1260" width="103.983" height="1.599" transform="translate(2163.545 1416.386) rotate(-21.49)" fill="#1a1818"/>
          </g>
        </g>
        <g id="Group_876" data-name="Group 876">
          <g id="Group_874" data-name="Group 874">
            <rect id="Rectangle_1261" data-name="Rectangle 1261" width="1.6" height="103.701" transform="translate(2148.848 1380.173) rotate(-68.673)" fill="#1a1818"/>
          </g>
          <g id="Group_875" data-name="Group 875">
            <rect id="Rectangle_1262" data-name="Rectangle 1262" width="103.216" height="1.6" transform="matrix(0.926, -0.377, 0.377, 0.926, 2148.833, 1378.676)" fill="#1a1818"/>
          </g>
        </g>
      </g>
      <g id="Group_880" data-name="Group 880" transform="translate(-1322.785 -871.775)">
        <g id="Group_878" data-name="Group 878">
          <path id="Path_196" data-name="Path 196" d="M1999.513,1284.371a47.7,47.7,0,0,0-33.7,81.491v41.13l-5.311,6.743,6.111,7.758,6.111-7.758-5.311-6.743v-39.6a47.561,47.561,0,0,0,31.3,12.422v41.242l-5.312,6.742,6.111,7.759,6.1-7.759-5.3-6.742v-41.242A47.573,47.573,0,0,0,2031.6,1367.4c.544-.5,1.08-1.008,1.6-1.528a47.708,47.708,0,0,0-33.691-81.5Zm.8,1.608a45.976,45.976,0,0,1,31.227,12.958l-24.2,24.2a11.834,11.834,0,0,0-7.023-2.911Zm-1.6,0v34.251a11.784,11.784,0,0,0-7.023,2.911l-24.2-24.2A45.939,45.939,0,0,1,1998.714,1285.979Zm-28.028,127.756-4.071,5.175-4.072-5.175,4.072-5.175Zm-4.335-49.608a46.038,46.038,0,0,1,0-64.054l24.2,24.2a11.866,11.866,0,0,0,0,15.646Zm1.136,1.127,24.2-24.2a11.785,11.785,0,0,0,7.023,2.912v34.25A45.939,45.939,0,0,1,1967.487,1365.254Zm36.1,62.542-4.072,5.176-4.071-5.176,4.071-5.175Zm-4.072-85.4a6.612,6.612,0,0,1-.8-.04,10.276,10.276,0,0,1-7.023-16.941,9.518,9.518,0,0,1,1.136-1.136,10.113,10.113,0,0,1,5.887-2.44,8,8,0,0,1,1.6,0,10.387,10.387,0,0,1,7.023,3.568,10.279,10.279,0,0,1-.008,13.382,10.072,10.072,0,0,1-1.128,1.136,10.215,10.215,0,0,1-5.887,2.431A6.619,6.619,0,0,1,1999.513,1342.394Zm.8,35.818v-34.25a11.762,11.762,0,0,0,7.015-2.912l24.2,24.2A45.935,45.935,0,0,1,2000.313,1378.212Zm32.355-14.085-24.2-24.212a11.855,11.855,0,0,0,0-15.638l24.2-24.2a46.037,46.037,0,0,1,0,64.054Z" fill="#1a1818"/>
        </g>
        <g id="Group_879" data-name="Group 879">
          <path id="Path_197" data-name="Path 197" d="M2033.2,1406.992V1365.87c-.52.52-1.056,1.032-1.6,1.528v39.594l-5.3,6.743,6.1,7.758,6.111-7.758Zm-4.871,6.743,4.071-5.175,4.072,5.175-4.072,5.175Z" fill="#1a1818"/>
        </g>
      </g>
      <g id="Group_884" data-name="Group 884" transform="translate(-1165.785 -851.775)">
        <g id="Group_881" data-name="Group 881">
          <path id="Path_198" data-name="Path 198" d="M2387.2,1391.652l-51.9-51.9,51.9-51.9,51.9,51.9Zm-49.635-51.9,49.635,49.634,49.633-49.634-49.633-49.634Z" fill="#1a1818"/>
        </g>
        <g id="Group_882" data-name="Group 882">
          <path id="Path_199" data-name="Path 199" d="M2387.2,1372.792l-33.036-33.036,33.036-33.036,33.036,33.036Zm-30.774-33.036,30.774,30.774,30.774-30.774-30.774-30.774Z" fill="#1a1818"/>
        </g>
        <g id="Group_883" data-name="Group 883">
          <circle id="Ellipse_13" data-name="Ellipse 13" cx="4.365" cy="4.365" r="4.365" transform="translate(2382.83 1335.391)" fill="#1a1818"/>
        </g>
      </g>
      <g id="Group_922" data-name="Group 922" transform="translate(-1196.785 -831.775)">
        <g id="Group_899" data-name="Group 899">
          <g id="Group_886" data-name="Group 886">
            <g id="Group_885" data-name="Group 885">
              <path id="Path_200" data-name="Path 200" d="M2301.129,1552.583l-10.8,10.8-1.136-1.128.016-.016-9.695-9.694,1.112-1.112,9.695,9.694,9.67-9.67Z" fill="#1a1818"/>
            </g>
          </g>
          <g id="Group_888" data-name="Group 888">
            <g id="Group_887" data-name="Group 887">
              <path id="Path_201" data-name="Path 201" d="M2320.514,1552.583l-10.8,10.8-1.136-1.128.016-.016-9.695-9.694,1.112-1.112,9.695,9.694,9.67-9.67Z" fill="#1a1818"/>
            </g>
          </g>
          <g id="Group_890" data-name="Group 890">
            <g id="Group_889" data-name="Group 889">
              <path id="Path_202" data-name="Path 202" d="M2339.886,1552.583l-10.8,10.8-1.136-1.128.016-.016-9.694-9.694,1.112-1.112,9.694,9.694,9.67-9.67Z" fill="#1a1818"/>
            </g>
          </g>
          <g id="Group_892" data-name="Group 892">
            <g id="Group_891" data-name="Group 891">
              <path id="Path_203" data-name="Path 203" d="M2359.258,1552.583l-10.8,10.8-1.136-1.128.016-.016-9.694-9.694,1.112-1.112,9.694,9.694,9.67-9.67Z" fill="#1a1818"/>
            </g>
          </g>
          <g id="Group_894" data-name="Group 894">
            <g id="Group_893" data-name="Group 893">
              <path id="Path_204" data-name="Path 204" d="M2378.63,1552.583l-10.8,10.8-1.136-1.128.016-.016-9.695-9.694,1.112-1.112,9.695,9.694,9.67-9.67Z" fill="#1a1818"/>
            </g>
          </g>
          <g id="Group_896" data-name="Group 896">
            <g id="Group_895" data-name="Group 895">
              <path id="Path_205" data-name="Path 205" d="M2398,1552.583l-10.8,10.8-1.136-1.128.016-.016-9.694-9.694,1.112-1.112,9.694,9.694,9.67-9.67Z" fill="#1a1818"/>
            </g>
          </g>
          <g id="Group_898" data-name="Group 898">
            <g id="Group_897" data-name="Group 897">
              <path id="Path_206" data-name="Path 206" d="M2417.374,1552.583l-10.8,10.8-1.136-1.128.016-.016-9.694-9.694,1.112-1.112,9.694,9.694,9.67-9.67Z" fill="#1a1818"/>
            </g>
          </g>
        </g>
        <g id="Group_914" data-name="Group 914">
          <g id="Group_901" data-name="Group 901">
            <g id="Group_900" data-name="Group 900">
              <path id="Path_207" data-name="Path 207" d="M2302.048,1534.867l-10.8,10.8-1.136-1.128.016-.016-9.694-9.694,1.112-1.112,9.694,9.694,9.67-9.67Z" fill="#1a1818"/>
            </g>
          </g>
          <g id="Group_903" data-name="Group 903">
            <g id="Group_902" data-name="Group 902">
              <path id="Path_208" data-name="Path 208" d="M2321.433,1534.867l-10.8,10.8-1.136-1.128.016-.016-9.694-9.694,1.112-1.112,9.694,9.694,9.67-9.67Z" fill="#1a1818"/>
            </g>
          </g>
          <g id="Group_905" data-name="Group 905">
            <g id="Group_904" data-name="Group 904">
              <path id="Path_209" data-name="Path 209" d="M2340.8,1534.867l-10.8,10.8-1.136-1.128.016-.016-9.694-9.694,1.112-1.112,9.694,9.694,9.671-9.67Z" fill="#1a1818"/>
            </g>
          </g>
          <g id="Group_907" data-name="Group 907">
            <g id="Group_906" data-name="Group 906">
              <path id="Path_210" data-name="Path 210" d="M2360.176,1534.867l-10.8,10.8-1.136-1.128.016-.016-9.695-9.694,1.112-1.112,9.695,9.694,9.67-9.67Z" fill="#1a1818"/>
            </g>
          </g>
          <g id="Group_909" data-name="Group 909">
            <g id="Group_908" data-name="Group 908">
              <path id="Path_211" data-name="Path 211" d="M2379.548,1534.867l-10.8,10.8-1.136-1.128.016-.016-9.694-9.694,1.112-1.112,9.694,9.694,9.67-9.67Z" fill="#1a1818"/>
            </g>
          </g>
          <g id="Group_911" data-name="Group 911">
            <g id="Group_910" data-name="Group 910">
              <path id="Path_212" data-name="Path 212" d="M2398.92,1534.867l-10.8,10.8-1.136-1.128.016-.016-9.694-9.694,1.112-1.112,9.694,9.694,9.67-9.67Z" fill="#1a1818"/>
            </g>
          </g>
          <g id="Group_913" data-name="Group 913">
            <g id="Group_912" data-name="Group 912">
              <path id="Path_213" data-name="Path 213" d="M2418.292,1534.867l-10.8,10.8-1.136-1.128.016-.016-9.695-9.694,1.112-1.112,9.695,9.694,9.67-9.67Z" fill="#1a1818"/>
            </g>
          </g>
        </g>
        <g id="Group_915" data-name="Group 915">
          <rect id="Rectangle_1263" data-name="Rectangle 1263" width="13.89" height="1.6" transform="translate(2290.676 1523.462) rotate(-45)" fill="#1a1818"/>
        </g>
        <g id="Group_916" data-name="Group 916">
          <rect id="Rectangle_1264" data-name="Rectangle 1264" width="13.89" height="1.6" transform="translate(2310.061 1523.462) rotate(-45)" fill="#1a1818"/>
        </g>
        <g id="Group_917" data-name="Group 917">
          <rect id="Rectangle_1265" data-name="Rectangle 1265" width="13.89" height="1.6" transform="translate(2329.445 1523.462) rotate(-45)" fill="#1a1818"/>
        </g>
        <g id="Group_918" data-name="Group 918">
          <rect id="Rectangle_1266" data-name="Rectangle 1266" width="13.89" height="1.6" transform="translate(2348.83 1523.462) rotate(-45)" fill="#1a1818"/>
        </g>
        <g id="Group_919" data-name="Group 919">
          <rect id="Rectangle_1267" data-name="Rectangle 1267" width="13.89" height="1.6" transform="translate(2368.215 1523.462) rotate(-45)" fill="#1a1818"/>
        </g>
        <g id="Group_920" data-name="Group 920">
          <rect id="Rectangle_1268" data-name="Rectangle 1268" width="13.89" height="1.6" transform="translate(2387.599 1523.462) rotate(-45)" fill="#1a1818"/>
        </g>
        <g id="Group_921" data-name="Group 921">
          <rect id="Rectangle_1269" data-name="Rectangle 1269" width="13.89" height="1.6" transform="translate(2406.983 1523.462) rotate(-45)" fill="#1a1818"/>
        </g>
      </g>
      <g id="Group_928" data-name="Group 928" transform="translate(-1389.785 -831.775)">
        <g id="Group_924" data-name="Group 924">
          <g id="Group_923" data-name="Group 923">
            <path id="Path_214" data-name="Path 214" d="M2151.208,1569.8h-5.279l2.677,2.692-1.128,1.128-2.692-2.692v5.294h-1.594v-8.017h8.017Z" fill="#1a1818"/>
          </g>
        </g>
        <g id="Group_927" data-name="Group 927">
          <g id="Group_925" data-name="Group 925">
            <path id="Path_215" data-name="Path 215" d="M2142.063,1500.8l4.407,4.407-32.578,32.578-32.563-32.563,4.407-4.422h-9.942v9.957l4.407-4.407,32.563,32.563-24.621,24.622h-6.874v1.594h6.408v6.422h1.609v-6.9l24.621-24.607,24.607,24.607v6.9h1.594v-6.422h6.422v-1.594h-6.873l-24.622-24.622,32.563-32.563,4.407,4.407V1500.8Zm-64.674,6.092v-4.483h4.482Zm73.022,0-4.5-4.483h4.5Z" fill="#1a1818"/>
          </g>
          <g id="Group_926" data-name="Group 926">
            <path id="Path_216" data-name="Path 216" d="M2084.608,1568.208v8.017H2083v-5.294l-2.677,2.692-1.143-1.128,2.692-2.692h-5.279v-1.594Z" fill="#1a1818"/>
          </g>
        </g>
      </g>
    </g>
  </g>
</svg>
