<svg xmlns="http://www.w3.org/2000/svg" width="161.504" height="52" viewBox="0 0 161.504 52"><g transform="translate(0 6.591)"><path d="M177.012,90.444V85.5H156.439a21.185,21.185,0,0,0-4.409.458h0a14.76,14.76,0,0,0-3.232,1.566,14.429,14.429,0,0,0-3.065-1.5,21.1,21.1,0,0,0-4.66-.519H120.5v4.944h20.57a15.8,15.8,0,0,1,1.692.087,21.208,21.208,0,0,0-7.514,16.16,20.949,20.949,0,0,0,1.4,7.528,21.213,21.213,0,0,0,6.115,8.618q-.833.08-1.692.079H120.5v4.952h20.57a21,21,0,0,0,4.533-.492,14.8,14.8,0,0,0,3.191-1.553,14.468,14.468,0,0,0,3.372,1.609,20.783,20.783,0,0,0,4.272.436h20.573v-4.952H156.439c-.564,0-1.128-.026-1.676-.079a21.161,21.161,0,0,0,0-32.309,16.222,16.222,0,0,1,1.676-.085Zm-21.827,8.194c.137.237.267.481.391.726a16.293,16.293,0,0,1,0,14.637c-.117.242-.245.476-.378.71a16.136,16.136,0,0,1-6.437,6.27,16.2,16.2,0,0,1-6.444-6.26c-.1-.181-.2-.36-.294-.545a16.293,16.293,0,0,1,0-14.971c.1-.2.2-.385.315-.572a16.257,16.257,0,0,1,6.427-6.25A16.249,16.249,0,0,1,155.185,98.639Z" transform="translate(-120.5 -85.5)" fill="#1a1818"/></g><text transform="translate(66.504 24)" fill="#1a1818" font-size="25" font-family="MontserratAlternates-Regular, Montserrat Alternates" letter-spacing="0.191em"><tspan x="0" y="0">Inguz</tspan><tspan font-size="20" letter-spacing="0.158em"><tspan x="0" y="23">Studios</tspan></tspan></text></svg>