<svg xmlns="http://www.w3.org/2000/svg" width="259.815" height="296.512" viewBox="0 0 259.815 296.512"><g transform="translate(-140 -292)"><g transform="translate(140 291.954)" opacity="0.51"><rect width="198" height="198" transform="translate(0 0.046)"/><g transform="translate(14.804 65.942)"><g transform="translate(0 49.876)"><path d="M265.845,432.8l-13.572,14.252-1.428-1.489.02-.021-12.184-12.795,1.4-1.467,12.184,12.795,12.154-12.763Z" transform="translate(-238.682 -431.277)" fill="#fff"/><g transform="translate(24.363)"><path d="M282.728,432.8l-13.572,14.252-1.428-1.489.02-.021-12.184-12.795,1.4-1.467,12.184,12.795L281.3,431.309Z" transform="translate(-255.565 -431.277)" fill="#fff"/></g><g transform="translate(48.377)"><path d="M299.6,432.8l-13.572,14.252L284.6,445.56l.02-.021-12.184-12.795,1.4-1.467,12.184,12.795,12.154-12.763Z" transform="translate(-272.438 -431.277)" fill="#fff"/></g><g transform="translate(72.557)"><path d="M316.473,432.8,302.9,447.049l-1.428-1.489.02-.021L289.31,432.745l1.4-1.467,12.184,12.795,12.154-12.763Z" transform="translate(-289.31 -431.277)" fill="#fff"/></g><g transform="translate(96.738)"><path d="M333.346,432.8l-13.572,14.252-1.428-1.489.02-.021-12.184-12.795,1.4-1.467,12.184,12.795,12.154-12.763Z" transform="translate(-306.182 -431.277)" fill="#fff"/></g><g transform="translate(120.752)"><path d="M350.218,432.8l-13.572,14.252-1.428-1.489.02-.021-12.184-12.795,1.4-1.467,12.184,12.795,12.154-12.763Z" transform="translate(-323.055 -431.277)" fill="#fff"/></g><g transform="translate(145.099)"><path d="M367.09,432.8l-13.572,14.252-1.428-1.489.02-.021-12.184-12.795,1.4-1.467,12.184,12.795,12.154-12.763Z" transform="translate(-339.927 -431.277)" fill="#fff"/></g></g><g transform="translate(1.154 26.495)"><path d="M266.645,416.594l-13.572,14.252-1.428-1.489.02-.021-12.184-12.795,1.4-1.467,12.184,12.795,12.154-12.763Z" transform="translate(-239.482 -415.074)" fill="#fff"/><g transform="translate(24.363)"><path d="M283.529,416.594l-13.572,14.252-1.428-1.489.02-.021-12.184-12.795,1.4-1.467,12.184,12.795L282.1,415.106Z" transform="translate(-256.365 -415.074)" fill="#fff"/></g><g transform="translate(48.377)"><path d="M300.4,416.594l-13.572,14.252-1.428-1.489.02-.021-12.184-12.795,1.4-1.467,12.184,12.795,12.154-12.763Z" transform="translate(-273.238 -415.074)" fill="#fff"/></g><g transform="translate(72.557)"><path d="M317.273,416.594,303.7,430.846l-1.428-1.489.02-.021L290.11,416.541l1.4-1.467,12.184,12.795,12.154-12.763Z" transform="translate(-290.11 -415.074)" fill="#fff"/></g><g transform="translate(96.738)"><path d="M334.146,416.594l-13.572,14.252-1.428-1.489.02-.021-12.184-12.795,1.4-1.467,12.184,12.795,12.154-12.763Z" transform="translate(-306.982 -415.074)" fill="#fff"/></g><g transform="translate(120.752)"><path d="M351.018,416.594l-13.572,14.252-1.428-1.489.02-.021-12.184-12.795,1.4-1.467,12.184,12.795,12.154-12.763Z" transform="translate(-323.855 -415.074)" fill="#fff"/></g><g transform="translate(145.099)"><path d="M367.89,416.594l-13.572,14.252-1.428-1.489.02-.021-12.184-12.795,1.4-1.467,12.184,12.795,12.154-12.763Z" transform="translate(-340.727 -415.074)" fill="#fff"/></g></g><g transform="translate(14.025)"><path d="M249.823,411.168l-1.422-1.493,12.344-12.962,1.422,1.493Z" transform="translate(-248.401 -396.713)" fill="#fff"/></g><g transform="translate(38.149)"><path d="M266.706,411.168l-1.422-1.493,12.344-12.962,1.422,1.493Z" transform="translate(-265.284 -396.713)" fill="#fff"/></g><g transform="translate(62.361)"><path d="M283.59,411.168l-1.422-1.493,12.344-12.962,1.422,1.493Z" transform="translate(-282.168 -396.713)" fill="#fff"/></g><g transform="translate(86.572)"><path d="M300.473,411.168l-1.422-1.493L311.4,396.713l1.422,1.493Z" transform="translate(-299.051 -396.713)" fill="#fff"/></g><g transform="translate(110.784)"><path d="M317.357,411.168l-1.422-1.493,12.344-12.962,1.422,1.493Z" transform="translate(-315.935 -396.713)" fill="#fff"/></g><g transform="translate(134.841)"><path d="M334.24,411.168l-1.422-1.493,12.344-12.962,1.422,1.493Z" transform="translate(-332.818 -396.713)" fill="#fff"/></g><g transform="translate(159.204)"><path d="M351.123,411.168l-1.422-1.493,12.344-12.962,1.422,1.493Z" transform="translate(-349.702 -396.713)" fill="#fff"/></g></g></g><g transform="translate(201.815 390.512)"><path d="M0,0H198V198H0Z" transform="translate(0)"/><g transform="translate(30.949 28.455)"><path d="M179.763,373.331c-37.145,0-67.364-31.593-67.364-70.427s30.22-70.424,67.364-70.424,67.366,31.592,67.366,70.424S216.91,373.331,179.763,373.331Zm0-138.859c-36.093,0-65.458,30.7-65.458,68.432s29.365,68.433,65.458,68.433,65.46-30.7,65.46-68.433S215.858,234.472,179.763,234.472Z" transform="translate(-112.399 -232.479)" fill="#fff"/><g transform="translate(17.605 0.598)"><path d="M126.345,350.64l-1.746-.8,48.886-116.942,1.746.8Z" transform="translate(-124.599 -232.894)" fill="#fff"/><g transform="translate(48.886 0.001)"><path d="M207.192,350.638,158.477,233.7l1.746-.8,48.715,116.942Z" transform="translate(-158.477 -232.894)" fill="#fff"/></g></g><g transform="translate(18.975 20.996)"><g transform="translate(47.993 0.007)"><path d="M160.567,366.7l-1.759-.77,47.032-118.462,1.759.77Z" transform="translate(-158.807 -247.471)" fill="#fff"/></g><path d="M173.544,366.712l-48-118.462,1.754-.784,48,118.462Z" transform="translate(-125.549 -247.466)" fill="#fff"/></g><g transform="translate(18.129 21.09)"><g transform="translate(1.367)"><path d="M239.834,297.167,125.909,248.952l.713-1.857,113.925,48.215Z" transform="translate(-125.909 -247.094)" fill="#fff"/></g><g transform="translate(0 48.213)"><path d="M125.66,330.076l-.7-1.862,115.3-47.708.7,1.862Z" transform="translate(-124.962 -280.505)" fill="#fff"/></g></g><g transform="translate(0.594 21.091)"><g transform="translate(0.013 48.716)"><path d="M227.946,329.922l-115.127-47.2.693-1.865,115.127,47.2Z" transform="translate(-112.819 -280.855)" fill="#fff"/></g><path d="M113.529,297.671l-.719-1.855L226.737,247.1l.719,1.854Z" transform="translate(-112.81 -247.095)" fill="#fff"/></g></g></g></g></svg>