<svg xmlns="http://www.w3.org/2000/svg" width="198" height="198" viewBox="0 0 198 198"><g transform="translate(0 -0.046)"><rect width="198" height="198" transform="translate(0 0.046)"/><g transform="translate(14.804 65.942)"><g transform="translate(0 49.876)"><path d="M265.845,432.8l-13.572,14.252-1.428-1.489.02-.021-12.184-12.795,1.4-1.467,12.184,12.795,12.154-12.763Z" transform="translate(-238.682 -431.277)" fill="#fff"/><g transform="translate(24.363)"><path d="M282.728,432.8l-13.572,14.252-1.428-1.489.02-.021-12.184-12.795,1.4-1.467,12.184,12.795L281.3,431.309Z" transform="translate(-255.565 -431.277)" fill="#fff"/></g><g transform="translate(48.377)"><path d="M299.6,432.8l-13.572,14.252L284.6,445.56l.02-.021-12.184-12.795,1.4-1.467,12.184,12.795,12.154-12.763Z" transform="translate(-272.438 -431.277)" fill="#fff"/></g><g transform="translate(72.557)"><path d="M316.473,432.8,302.9,447.049l-1.428-1.489.02-.021L289.31,432.745l1.4-1.467,12.184,12.795,12.154-12.763Z" transform="translate(-289.31 -431.277)" fill="#fff"/></g><g transform="translate(96.738)"><path d="M333.346,432.8l-13.572,14.252-1.428-1.489.02-.021-12.184-12.795,1.4-1.467,12.184,12.795,12.154-12.763Z" transform="translate(-306.182 -431.277)" fill="#fff"/></g><g transform="translate(120.752)"><path d="M350.218,432.8l-13.572,14.252-1.428-1.489.02-.021-12.184-12.795,1.4-1.467,12.184,12.795,12.154-12.763Z" transform="translate(-323.055 -431.277)" fill="#fff"/></g><g transform="translate(145.099)"><path d="M367.09,432.8l-13.572,14.252-1.428-1.489.02-.021-12.184-12.795,1.4-1.467,12.184,12.795,12.154-12.763Z" transform="translate(-339.927 -431.277)" fill="#fff"/></g></g><g transform="translate(1.154 26.495)"><path d="M266.645,416.594l-13.572,14.252-1.428-1.489.02-.021-12.184-12.795,1.4-1.467,12.184,12.795,12.154-12.763Z" transform="translate(-239.482 -415.074)" fill="#fff"/><g transform="translate(24.363)"><path d="M283.529,416.594l-13.572,14.252-1.428-1.489.02-.021-12.184-12.795,1.4-1.467,12.184,12.795L282.1,415.106Z" transform="translate(-256.365 -415.074)" fill="#fff"/></g><g transform="translate(48.377)"><path d="M300.4,416.594l-13.572,14.252-1.428-1.489.02-.021-12.184-12.795,1.4-1.467,12.184,12.795,12.154-12.763Z" transform="translate(-273.238 -415.074)" fill="#fff"/></g><g transform="translate(72.557)"><path d="M317.273,416.594,303.7,430.846l-1.428-1.489.02-.021L290.11,416.541l1.4-1.467,12.184,12.795,12.154-12.763Z" transform="translate(-290.11 -415.074)" fill="#fff"/></g><g transform="translate(96.738)"><path d="M334.146,416.594l-13.572,14.252-1.428-1.489.02-.021-12.184-12.795,1.4-1.467,12.184,12.795,12.154-12.763Z" transform="translate(-306.982 -415.074)" fill="#fff"/></g><g transform="translate(120.752)"><path d="M351.018,416.594l-13.572,14.252-1.428-1.489.02-.021-12.184-12.795,1.4-1.467,12.184,12.795,12.154-12.763Z" transform="translate(-323.855 -415.074)" fill="#fff"/></g><g transform="translate(145.099)"><path d="M367.89,416.594l-13.572,14.252-1.428-1.489.02-.021-12.184-12.795,1.4-1.467,12.184,12.795,12.154-12.763Z" transform="translate(-340.727 -415.074)" fill="#fff"/></g></g><g transform="translate(14.025)"><path d="M249.823,411.168l-1.422-1.493,12.344-12.962,1.422,1.493Z" transform="translate(-248.401 -396.713)" fill="#fff"/></g><g transform="translate(38.149)"><path d="M266.706,411.168l-1.422-1.493,12.344-12.962,1.422,1.493Z" transform="translate(-265.284 -396.713)" fill="#fff"/></g><g transform="translate(62.361)"><path d="M283.59,411.168l-1.422-1.493,12.344-12.962,1.422,1.493Z" transform="translate(-282.168 -396.713)" fill="#fff"/></g><g transform="translate(86.572)"><path d="M300.473,411.168l-1.422-1.493L311.4,396.713l1.422,1.493Z" transform="translate(-299.051 -396.713)" fill="#fff"/></g><g transform="translate(110.784)"><path d="M317.357,411.168l-1.422-1.493,12.344-12.962,1.422,1.493Z" transform="translate(-315.935 -396.713)" fill="#fff"/></g><g transform="translate(134.841)"><path d="M334.24,411.168l-1.422-1.493,12.344-12.962,1.422,1.493Z" transform="translate(-332.818 -396.713)" fill="#fff"/></g><g transform="translate(159.204)"><path d="M351.123,411.168l-1.422-1.493,12.344-12.962,1.422,1.493Z" transform="translate(-349.702 -396.713)" fill="#fff"/></g></g></g></svg>