<svg xmlns="http://www.w3.org/2000/svg" width="198" height="198" viewBox="0 0 198 198"><g transform="translate(0 0)"><path d="M0,0H198V198H0Z" transform="translate(0 0)"/><g transform="translate(38.167 37.005)"><g transform="translate(106.202 111.546)"><path d="M705.318,1165.041H697l4.219,4.455-1.778,1.866-4.242-4.455v8.76h-2.512V1162.4h12.632Z" transform="translate(-692.686 -1162.404)" fill="#fff"/></g><path d="M613.914,969.985l6.944,7.292-51.335,53.906L518.212,977.3l6.944-7.317H509.49V986.46l6.944-7.292,51.311,53.881-38.8,40.741H518.117v2.638h10.1v10.627h2.536v-11.423l38.8-40.716,38.774,40.716v11.423h2.512v-10.627h10.12v-2.638H610.122l-38.8-40.741,51.312-53.881,6.944,7.292V969.985ZM512,980.064v-7.416h7.063Zm115.066,0-7.086-7.416h7.086Z" transform="translate(-509.49 -969.985)" fill="#fff"/><g transform="translate(1.256 111.546)"><path d="M524.289,1162.4v13.265h-2.536v-8.76l-4.218,4.455-1.8-1.866,4.242-4.455h-8.319V1162.4Z" transform="translate(-511.657 -1162.404)" fill="#fff"/></g></g></g></svg>