<svg xmlns="http://www.w3.org/2000/svg" width="198" height="198" viewBox="0 0 198 198"><g transform="translate(0.061 0.07)"><g transform="translate(-0.061 -0.07)"><rect width="198" height="198"/></g><g transform="translate(47.611 15.623)"><path d="M451.306,361.052c-28.1,0-50.965,23.586-50.965,52.571a53.248,53.248,0,0,0,14.981,37.189v45.3l-5.671,7.427,6.526,8.547,6.526-8.547-5.671-7.427v-43.62a49.956,49.956,0,0,0,33.421,13.683V511.6l-5.671,7.428,6.526,8.546,6.517-8.546-5.663-7.428V466.176A49.976,49.976,0,0,0,485.573,452.5c.581-.547,1.152-1.111,1.707-1.683a53.247,53.247,0,0,0,14.981-37.2C502.261,384.638,479.406,361.052,451.306,361.052Zm.854,1.771A48.345,48.345,0,0,1,485.5,377.1l-25.846,26.66a12.441,12.441,0,0,0-7.5-3.207Zm-1.709,0v37.725a12.4,12.4,0,0,0-7.5,3.207L417.108,377.1A48.307,48.307,0,0,1,450.452,362.823ZM420.524,503.54l-4.348,5.7-4.348-5.7,4.348-5.7ZM415.895,448.9a51.864,51.864,0,0,1,0-70.553l25.846,26.66a13.377,13.377,0,0,0,0,17.233Zm1.213,1.242,25.844-26.659a12.386,12.386,0,0,0,7.5,3.206v37.727A48.309,48.309,0,0,1,417.108,450.141Zm38.546,68.889-4.348,5.7-4.348-5.7,4.348-5.7Zm-4.348-94.068a6.757,6.757,0,0,1-.854-.044,10.688,10.688,0,0,1-6.286-2.688,10.886,10.886,0,0,1-1.213-1.242,11.569,11.569,0,0,1,0-14.73,10.386,10.386,0,0,1,1.213-1.252,10.625,10.625,0,0,1,6.286-2.686,8.27,8.27,0,0,1,1.709,0,10.633,10.633,0,0,1,6.286,2.686,11.1,11.1,0,0,1,1.212,1.242,11.592,11.592,0,0,1-.009,14.74,10.814,10.814,0,0,1-7.489,3.929A6.757,6.757,0,0,1,451.306,424.962Zm.854,39.452V426.688a12.354,12.354,0,0,0,7.489-3.206L485.5,450.141A48.3,48.3,0,0,1,452.161,464.415ZM486.709,448.9,460.863,422.23a13.37,13.37,0,0,0,0-17.224l25.846-26.66a51.864,51.864,0,0,1,0,70.553Z" transform="translate(-400.341 -361.052)" fill="#fff"/><g transform="translate(79.569 88.386)"><path d="M462.47,470.052V423.943c-.555.583-1.126,1.157-1.707,1.713v44.4l-5.663,7.56,6.517,8.7,6.524-8.7Zm-5.2,7.56,4.348-5.8,4.346,5.8-4.346,5.8Z" transform="translate(-455.1 -423.943)" fill="#fff"/></g></g></g></svg>