<svg xmlns="http://www.w3.org/2000/svg" width="198" height="198" viewBox="0 0 198 198"><path d="M0,0H198V198H0Z" transform="translate(0)"/><g transform="translate(30.949 28.455)"><path d="M179.763,373.331c-37.145,0-67.364-31.593-67.364-70.427s30.22-70.424,67.364-70.424,67.366,31.592,67.366,70.424S216.91,373.331,179.763,373.331Zm0-138.859c-36.093,0-65.458,30.7-65.458,68.432s29.365,68.433,65.458,68.433,65.46-30.7,65.46-68.433S215.858,234.472,179.763,234.472Z" transform="translate(-112.399 -232.479)" fill="#fff"/><g transform="translate(17.605 0.598)"><path d="M126.345,350.64l-1.746-.8,48.886-116.942,1.746.8Z" transform="translate(-124.599 -232.894)" fill="#fff"/><g transform="translate(48.886 0.001)"><path d="M207.192,350.638,158.477,233.7l1.746-.8,48.715,116.942Z" transform="translate(-158.477 -232.894)" fill="#fff"/></g></g><g transform="translate(18.975 20.996)"><g transform="translate(47.993 0.007)"><path d="M160.567,366.7l-1.759-.77,47.032-118.462,1.759.77Z" transform="translate(-158.807 -247.471)" fill="#fff"/></g><path d="M173.544,366.712l-48-118.462,1.754-.784,48,118.462Z" transform="translate(-125.549 -247.466)" fill="#fff"/></g><g transform="translate(18.129 21.09)"><g transform="translate(1.367)"><path d="M239.834,297.167,125.909,248.952l.713-1.857,113.925,48.215Z" transform="translate(-125.909 -247.094)" fill="#fff"/></g><g transform="translate(0 48.213)"><path d="M125.66,330.076l-.7-1.862,115.3-47.708.7,1.862Z" transform="translate(-124.962 -280.505)" fill="#fff"/></g></g><g transform="translate(0.594 21.091)"><g transform="translate(0.013 48.716)"><path d="M227.946,329.922l-115.127-47.2.693-1.865,115.127,47.2Z" transform="translate(-112.819 -280.855)" fill="#fff"/></g><path d="M113.529,297.671l-.719-1.855L226.737,247.1l.719,1.854Z" transform="translate(-112.81 -247.095)" fill="#fff"/></g></g></svg>